<?xml version="1.0" encoding="utf-8"?>
<!-- Generator: Adobe Illustrator 27.6.1, SVG Export Plug-In . SVG Version: 6.00 Build 0)  -->
<svg version="1.0" id="icons" xmlns="http://www.w3.org/2000/svg" xmlns:xlink="http://www.w3.org/1999/xlink" x="0px" y="0px"
	 viewBox="0 0 64 64" style="enable-background:new 0 0 64 64;" xml:space="preserve">
<symbol  id="apps" viewBox="-8 -8 16 16">
	<path id="apps_00000038380318310284404620000002830446392646465939_" d="M-6-8c-0.6,0-1,0.2-1.4,0.6C-7.8-7-8-6.6-8-6
		s0.2,1,0.6,1.4C-7-4.2-6.6-4-6-4s1-0.2,1.4-0.6S-4-5.5-4-6s-0.2-1-0.6-1.4C-5-7.8-5.5-8-6-8z M0-8c-0.6,0-1,0.2-1.4,0.6
		C-1.8-7-2-6.6-2-6s0.2,1,0.6,1.4S-0.6-4,0-4s1-0.2,1.4-0.6S2-5.5,2-6S1.8-7,1.4-7.4C1-7.8,0.6-8,0-8z M6-8C5.5-8,5-7.8,4.6-7.4
		C4.2-7,4-6.6,4-6s0.2,1,0.6,1.4S5.5-4,6-4s1-0.2,1.4-0.6C7.8-5,8-5.5,8-6S7.8-7,7.4-7.4C7-7.8,6.6-8,6-8z M-6-2
		c-0.6,0-1,0.2-1.4,0.6C-7.8-1-8-0.6-8,0s0.2,1,0.6,1.4C-7,1.8-6.6,2-6,2s1-0.2,1.4-0.6S-4,0.6-4,0s-0.2-1-0.6-1.4S-5.5-2-6-2z M0-2
		c-0.6,0-1,0.2-1.4,0.6S-2-0.6-2,0s0.2,1,0.6,1.4S-0.6,2,0,2s1-0.2,1.4-0.6S2,0.6,2,0S1.8-1,1.4-1.4S0.6-2,0-2z M6-2
		C5.5-2,5-1.8,4.6-1.4S4-0.6,4,0s0.2,1,0.6,1.4S5.5,2,6,2s1-0.2,1.4-0.6C7.8,1,8,0.6,8,0S7.8-1,7.4-1.4C7-1.8,6.6-2,6-2z M-6,4
		c-0.6,0-1,0.2-1.4,0.6C-7.8,5-8,5.5-8,6s0.2,1,0.6,1.4C-7,7.8-6.6,8-6,8s1-0.2,1.4-0.6C-4.2,7-4,6.6-4,6s-0.2-1-0.6-1.4S-5.5,4-6,4
		z M0,4c-0.6,0-1,0.2-1.4,0.6S-2,5.5-2,6s0.2,1,0.6,1.4C-1,7.8-0.6,8,0,8s1-0.2,1.4-0.6C1.8,7,2,6.6,2,6S1.8,5,1.4,4.6S0.6,4,0,4z
		 M6,4C5.5,4,5,4.2,4.6,4.6S4,5.5,4,6s0.2,1,0.6,1.4C5,7.8,5.5,8,6,8s1-0.2,1.4-0.6C7.8,7,8,6.6,8,6S7.8,5,7.4,4.6C7,4.2,6.6,4,6,4z
		"/>
</symbol>
<symbol  id="folder" viewBox="-10 -8 20 16">
	<path id="folder_00000010991018485745211610000014529888874215656362_" d="M2-4h2v2h2v2H4v2H2V0H0v-2h2V-4z M-8-8
		c-0.6,0-1,0.2-1.4,0.6C-9.8-7-10-6.6-10-6V6c0,0.6,0.2,1,0.6,1.4C-9,7.8-8.6,8-8,8h6l2-2h8c0.6,0,1-0.2,1.4-0.6C9.8,5,10,4.6,10,4
		V-6c0-0.6-0.2-1-0.6-1.4C9-7.8,8.6-8,8-8H-8z M-8-6H8V4h-8.8l-2,2H-8V-6z M-8-6V6V-6z"/>
</symbol>
<symbol  id="turn_off" viewBox="-11 -6 22 12">
	<path id="turn_off_00000085956070462497329380000016694130995978331827_" d="M-5-6c-1.7,0-3.1,0.6-4.2,1.8S-11-1.7-11,0
		s0.6,3.1,1.8,4.2S-6.7,6-5,6H5c1.7,0,3.1-0.6,4.2-1.8S11,1.7,11,0s-0.6-3.1-1.8-4.2S6.7-6,5-6H-5z M-5-4H5c1.1,0,2,0.4,2.8,1.2
		S9-1.1,9,0S8.6,2,7.8,2.8S6.1,4,5,4H-5c-1.1,0-2-0.4-2.8-1.2S-9,1.1-9,0s0.4-2,1.2-2.8S-6.1-4-5-4z M-5-3c0.8,0,1.5,0.3,2.1,0.9
		S-2-0.8-2,0s-0.3,1.5-0.9,2.1S-4.2,3-5,3s-1.5-0.3-2.1-0.9S-8,0.8-8,0s0.3-1.5,0.9-2.1S-5.8-3-5-3z"/>
</symbol>
<symbol  id="turn_on" viewBox="-11 -6 22 12">
	<path id="turn_on_00000142157292260920026540000005262810322274344632_" d="M-5-6c-1.7,0-3.1,0.6-4.2,1.8S-11-1.7-11,0
		s0.6,3.1,1.8,4.2S-6.7,6-5,6H5c1.7,0,3.1-0.6,4.2-1.8S11,1.7,11,0s-0.6-3.1-1.8-4.2S6.7-6,5-6H-5z M-5-4H5c1.1,0,2,0.4,2.8,1.2
		S9-1.1,9,0S8.6,2,7.8,2.8S6.1,4,5,4H-5c-1.1,0-2-0.4-2.8-1.2S-9,1.1-9,0s0.4-2,1.2-2.8S-6.1-4-5-4z M5-3c0.8,0,1.5,0.3,2.1,0.9
		S8-0.8,8,0S7.7,1.5,7.1,2.1S5.8,3,5,3S3.5,2.7,2.9,2.1S2,0.8,2,0s0.3-1.5,0.9-2.1S4.2-3,5-3z"/>
</symbol>
</svg>
